# xmcd
#
# Track frame offsets: 
#        150
#        22311
#        40440
#        58157
#        77262
#        97963
#        118562
#        141363
#        156541
#        171992
#        193207
#        210761
#
# Disc length: 3181 seconds
#
# Revision: 1
# Processed by: cddbd v1.5.2PL0 Copyright (c) Steve Scherf et al.
# Submitted via: ExactAudioCopyFreeDBPlugin 1.0
#
DISCID=a90c6b0c
DTITLE=Graveworm - Fragments of Death
DYEAR=2011
DGENRE=blues
TTITLE0=Insomnia
TTITLE1=Only Dead in Your Wake
TTITLE2=Absence of Faith
TTITLE3=Living Nightmare
TTITLE4=The World Will Die in Flames
TTITLE5=不安の中で (Anxiety)
TTITLE6=See No Future
TTITLE7=The Prophecy
TTITLE8=Remembrance
TTITLE9=Old Forgotten Song
TTITLE10=Where Angels Do Not Fly
TTITLE11=Awake (Bonus Track)
EXTD=
EXTT0=
EXTT1=
EXTT2=
EXTT3=
EXTT4=
EXTT5=
EXTT6=
EXTT7=
EXTT8=
EXTT9=
EXTT10=
EXTT11=
PLAYORDER=
